<svg width="325" height="143" viewBox="0 0 325 143" fill="none" xmlns="http://www.w3.org/2000/svg">
<circle cx="71.5" cy="71.5" r="71.5" fill="#5218F8"/>
<circle cx="253.5" cy="71.5" r="71.5" fill="#5218F8"/>
<circle cx="160" cy="80" r="29" fill="#FD6B1A"/>
<path d="M55.1992 72.3828H48.1914V77.6328H56.3828V80H45.2266V62.9375H56.3008V65.3281H48.1914V70.0391H55.1992V72.3828ZM61.1641 67.3203L61.2461 68.7852C62.1836 67.6523 63.4141 67.0859 64.9375 67.0859C67.5781 67.0859 68.9219 68.5977 68.9688 71.6211V80H66.1211V71.7852C66.1211 70.9805 65.9453 70.3867 65.5938 70.0039C65.25 69.6133 64.6836 69.418 63.8945 69.418C62.7461 69.418 61.8906 69.9375 61.3281 70.9766V80H58.4805V67.3203H61.1641ZM75.4492 64.2383V67.3203H77.6875V69.4297H75.4492V76.5078C75.4492 76.9922 75.543 77.3438 75.7305 77.5625C75.9258 77.7734 76.2695 77.8789 76.7617 77.8789C77.0898 77.8789 77.4219 77.8398 77.7578 77.7617V79.9648C77.1094 80.1445 76.4844 80.2344 75.8828 80.2344C73.6953 80.2344 72.6016 79.0273 72.6016 76.6133V69.4297H70.5156V67.3203H72.6016V64.2383H75.4492ZM86.5117 69.9219C86.1367 69.8594 85.75 69.8281 85.3516 69.8281C84.0469 69.8281 83.168 70.3281 82.7148 71.3281V80H79.8672V67.3203H82.5859L82.6562 68.7383C83.3438 67.6367 84.2969 67.0859 85.5156 67.0859C85.9219 67.0859 86.2578 67.1406 86.5234 67.25L86.5117 69.9219ZM93.6602 80.2344C91.8555 80.2344 90.3906 79.668 89.2656 78.5352C88.1484 77.3945 87.5898 75.8789 87.5898 73.9883V73.6367C87.5898 72.3711 87.832 71.2422 88.3164 70.25C88.8086 69.25 89.4961 68.4727 90.3789 67.918C91.2617 67.3633 92.2461 67.0859 93.332 67.0859C95.0586 67.0859 96.3906 67.6367 97.3281 68.7383C98.2734 69.8398 98.7461 71.3984 98.7461 73.4141V74.5625H90.4609C90.5469 75.6094 90.8945 76.4375 91.5039 77.0469C92.1211 77.6562 92.8945 77.9609 93.8242 77.9609C95.1289 77.9609 96.1914 77.4336 97.0117 76.3789L98.5469 77.8438C98.0391 78.6016 97.3594 79.1914 96.5078 79.6133C95.6641 80.0273 94.7148 80.2344 93.6602 80.2344ZM93.3203 69.3711C92.5391 69.3711 91.9062 69.6445 91.4219 70.1914C90.9453 70.7383 90.6406 71.5 90.5078 72.4766H95.9336V72.2656C95.8711 71.3125 95.6172 70.5938 95.1719 70.1094C94.7266 69.6172 94.1094 69.3711 93.3203 69.3711Z" fill="white"/>
<path d="M203.832 74.4453C203.66 76.2656 202.988 77.6875 201.816 78.7109C200.645 79.7266 199.086 80.2344 197.141 80.2344C195.781 80.2344 194.582 79.9141 193.543 79.2734C192.512 78.625 191.715 77.707 191.152 76.5195C190.59 75.332 190.297 73.9531 190.273 72.3828V70.7891C190.273 69.1797 190.559 67.7617 191.129 66.5352C191.699 65.3086 192.516 64.3633 193.578 63.6992C194.648 63.0352 195.883 62.7031 197.281 62.7031C199.164 62.7031 200.68 63.2148 201.828 64.2383C202.977 65.2617 203.645 66.707 203.832 68.5742H200.879C200.738 67.3477 200.379 66.4648 199.801 65.9258C199.23 65.3789 198.391 65.1055 197.281 65.1055C195.992 65.1055 195 65.5781 194.305 66.5234C193.617 67.4609 193.266 68.8398 193.25 70.6602V72.1719C193.25 74.0156 193.578 75.4219 194.234 76.3906C194.898 77.3594 195.867 77.8438 197.141 77.8438C198.305 77.8438 199.18 77.582 199.766 77.0586C200.352 76.5352 200.723 75.6641 200.879 74.4453H203.832ZM213.793 80C213.668 79.7578 213.559 79.3633 213.465 78.8164C212.559 79.7617 211.449 80.2344 210.137 80.2344C208.863 80.2344 207.824 79.8711 207.02 79.1445C206.215 78.418 205.812 77.5195 205.812 76.4492C205.812 75.0977 206.312 74.0625 207.312 73.3438C208.32 72.6172 209.758 72.2539 211.625 72.2539H213.371V71.4219C213.371 70.7656 213.188 70.2422 212.82 69.8516C212.453 69.4531 211.895 69.2539 211.145 69.2539C210.496 69.2539 209.965 69.418 209.551 69.7461C209.137 70.0664 208.93 70.4766 208.93 70.9766H206.082C206.082 70.2812 206.312 69.6328 206.773 69.0312C207.234 68.4219 207.859 67.9453 208.648 67.6016C209.445 67.2578 210.332 67.0859 211.309 67.0859C212.793 67.0859 213.977 67.4609 214.859 68.2109C215.742 68.9531 216.195 70 216.219 71.3516V77.0703C216.219 78.2109 216.379 79.1211 216.699 79.8008V80H213.793ZM210.664 77.9492C211.227 77.9492 211.754 77.8125 212.246 77.5391C212.746 77.2656 213.121 76.8984 213.371 76.4375V74.0469H211.836C210.781 74.0469 209.988 74.2305 209.457 74.5977C208.926 74.9648 208.66 75.4844 208.66 76.1562C208.66 76.7031 208.84 77.1406 209.199 77.4688C209.566 77.7891 210.055 77.9492 210.664 77.9492ZM218.668 73.5664C218.668 71.6133 219.121 70.0469 220.027 68.8672C220.934 67.6797 222.148 67.0859 223.672 67.0859C225.016 67.0859 226.102 67.5547 226.93 68.4922V62H229.777V80H227.199L227.059 78.6875C226.207 79.7188 225.07 80.2344 223.648 80.2344C222.164 80.2344 220.961 79.6367 220.039 78.4414C219.125 77.2461 218.668 75.6211 218.668 73.5664ZM221.516 73.8125C221.516 75.1016 221.762 76.1094 222.254 76.8359C222.754 77.5547 223.461 77.9141 224.375 77.9141C225.539 77.9141 226.391 77.3945 226.93 76.3555V70.9414C226.406 69.9258 225.562 69.418 224.398 69.418C223.477 69.418 222.766 69.7852 222.266 70.5195C221.766 71.2461 221.516 72.3438 221.516 73.8125ZM240.324 80C240.199 79.7578 240.09 79.3633 239.996 78.8164C239.09 79.7617 237.98 80.2344 236.668 80.2344C235.395 80.2344 234.355 79.8711 233.551 79.1445C232.746 78.418 232.344 77.5195 232.344 76.4492C232.344 75.0977 232.844 74.0625 233.844 73.3438C234.852 72.6172 236.289 72.2539 238.156 72.2539H239.902V71.4219C239.902 70.7656 239.719 70.2422 239.352 69.8516C238.984 69.4531 238.426 69.2539 237.676 69.2539C237.027 69.2539 236.496 69.418 236.082 69.7461C235.668 70.0664 235.461 70.4766 235.461 70.9766H232.613C232.613 70.2812 232.844 69.6328 233.305 69.0312C233.766 68.4219 234.391 67.9453 235.18 67.6016C235.977 67.2578 236.863 67.0859 237.84 67.0859C239.324 67.0859 240.508 67.4609 241.391 68.2109C242.273 68.9531 242.727 70 242.75 71.3516V77.0703C242.75 78.2109 242.91 79.1211 243.23 79.8008V80H240.324ZM237.195 77.9492C237.758 77.9492 238.285 77.8125 238.777 77.5391C239.277 77.2656 239.652 76.8984 239.902 76.4375V74.0469H238.367C237.312 74.0469 236.52 74.2305 235.988 74.5977C235.457 74.9648 235.191 75.4844 235.191 76.1562C235.191 76.7031 235.371 77.1406 235.73 77.4688C236.098 77.7891 236.586 77.9492 237.195 77.9492ZM252.84 76.5547C252.84 76.0469 252.629 75.6602 252.207 75.3945C251.793 75.1289 251.102 74.8945 250.133 74.6914C249.164 74.4883 248.355 74.2305 247.707 73.918C246.285 73.2305 245.574 72.2344 245.574 70.9297C245.574 69.8359 246.035 68.9219 246.957 68.1875C247.879 67.4531 249.051 67.0859 250.473 67.0859C251.988 67.0859 253.211 67.4609 254.141 68.2109C255.078 68.9609 255.547 69.9336 255.547 71.1289H252.699C252.699 70.582 252.496 70.1289 252.09 69.7695C251.684 69.4023 251.145 69.2188 250.473 69.2188C249.848 69.2188 249.336 69.3633 248.938 69.6523C248.547 69.9414 248.352 70.3281 248.352 70.8125C248.352 71.25 248.535 71.5898 248.902 71.832C249.27 72.0742 250.012 72.3203 251.129 72.5703C252.246 72.8125 253.121 73.1055 253.754 73.4492C254.395 73.7852 254.867 74.1914 255.172 74.668C255.484 75.1445 255.641 75.7227 255.641 76.4023C255.641 77.543 255.168 78.4688 254.223 79.1797C253.277 79.8828 252.039 80.2344 250.508 80.2344C249.469 80.2344 248.543 80.0469 247.73 79.6719C246.918 79.2969 246.285 78.7812 245.832 78.125C245.379 77.4688 245.152 76.7617 245.152 76.0039H247.918C247.957 76.6758 248.211 77.1953 248.68 77.5625C249.148 77.9219 249.77 78.1016 250.543 78.1016C251.293 78.1016 251.863 77.9609 252.254 77.6797C252.645 77.3906 252.84 77.0156 252.84 76.5547ZM261.699 64.2383V67.3203H263.938V69.4297H261.699V76.5078C261.699 76.9922 261.793 77.3438 261.98 77.5625C262.176 77.7734 262.52 77.8789 263.012 77.8789C263.34 77.8789 263.672 77.8398 264.008 77.7617V79.9648C263.359 80.1445 262.734 80.2344 262.133 80.2344C259.945 80.2344 258.852 79.0273 258.852 76.6133V69.4297H256.766V67.3203H258.852V64.2383H261.699ZM272.762 69.9219C272.387 69.8594 272 69.8281 271.602 69.8281C270.297 69.8281 269.418 70.3281 268.965 71.3281V80H266.117V67.3203H268.836L268.906 68.7383C269.594 67.6367 270.547 67.0859 271.766 67.0859C272.172 67.0859 272.508 67.1406 272.773 67.25L272.762 69.9219ZM279.91 80.2344C278.105 80.2344 276.641 79.668 275.516 78.5352C274.398 77.3945 273.84 75.8789 273.84 73.9883V73.6367C273.84 72.3711 274.082 71.2422 274.566 70.25C275.059 69.25 275.746 68.4727 276.629 67.918C277.512 67.3633 278.496 67.0859 279.582 67.0859C281.309 67.0859 282.641 67.6367 283.578 68.7383C284.523 69.8398 284.996 71.3984 284.996 73.4141V74.5625H276.711C276.797 75.6094 277.145 76.4375 277.754 77.0469C278.371 77.6562 279.145 77.9609 280.074 77.9609C281.379 77.9609 282.441 77.4336 283.262 76.3789L284.797 77.8438C284.289 78.6016 283.609 79.1914 282.758 79.6133C281.914 80.0273 280.965 80.2344 279.91 80.2344ZM279.57 69.3711C278.789 69.3711 278.156 69.6445 277.672 70.1914C277.195 70.7383 276.891 71.5 276.758 72.4766H282.184V72.2656C282.121 71.3125 281.867 70.5938 281.422 70.1094C280.977 69.6172 280.359 69.3711 279.57 69.3711ZM292.742 73.8945H286.59V71.5977H292.742V73.8945ZM302.199 76.5547C302.199 76.0469 301.988 75.6602 301.566 75.3945C301.152 75.1289 300.461 74.8945 299.492 74.6914C298.523 74.4883 297.715 74.2305 297.066 73.918C295.645 73.2305 294.934 72.2344 294.934 70.9297C294.934 69.8359 295.395 68.9219 296.316 68.1875C297.238 67.4531 298.41 67.0859 299.832 67.0859C301.348 67.0859 302.57 67.4609 303.5 68.2109C304.438 68.9609 304.906 69.9336 304.906 71.1289H302.059C302.059 70.582 301.855 70.1289 301.449 69.7695C301.043 69.4023 300.504 69.2188 299.832 69.2188C299.207 69.2188 298.695 69.3633 298.297 69.6523C297.906 69.9414 297.711 70.3281 297.711 70.8125C297.711 71.25 297.895 71.5898 298.262 71.832C298.629 72.0742 299.371 72.3203 300.488 72.5703C301.605 72.8125 302.48 73.1055 303.113 73.4492C303.754 73.7852 304.227 74.1914 304.531 74.668C304.844 75.1445 305 75.7227 305 76.4023C305 77.543 304.527 78.4688 303.582 79.1797C302.637 79.8828 301.398 80.2344 299.867 80.2344C298.828 80.2344 297.902 80.0469 297.09 79.6719C296.277 79.2969 295.645 78.7812 295.191 78.125C294.738 77.4688 294.512 76.7617 294.512 76.0039H297.277C297.316 76.6758 297.57 77.1953 298.039 77.5625C298.508 77.9219 299.129 78.1016 299.902 78.1016C300.652 78.1016 301.223 77.9609 301.613 77.6797C302.004 77.3906 302.199 77.0156 302.199 76.5547ZM313.074 80.2344C311.27 80.2344 309.805 79.668 308.68 78.5352C307.562 77.3945 307.004 75.8789 307.004 73.9883V73.6367C307.004 72.3711 307.246 71.2422 307.73 70.25C308.223 69.25 308.91 68.4727 309.793 67.918C310.676 67.3633 311.66 67.0859 312.746 67.0859C314.473 67.0859 315.805 67.6367 316.742 68.7383C317.688 69.8398 318.16 71.3984 318.16 73.4141V74.5625H309.875C309.961 75.6094 310.309 76.4375 310.918 77.0469C311.535 77.6562 312.309 77.9609 313.238 77.9609C314.543 77.9609 315.605 77.4336 316.426 76.3789L317.961 77.8438C317.453 78.6016 316.773 79.1914 315.922 79.6133C315.078 80.0273 314.129 80.2344 313.074 80.2344ZM312.734 69.3711C311.953 69.3711 311.32 69.6445 310.836 70.1914C310.359 70.7383 310.055 71.5 309.922 72.4766H315.348V72.2656C315.285 71.3125 315.031 70.5938 314.586 70.1094C314.141 69.6172 313.523 69.3711 312.734 69.3711Z" fill="white"/>
<path d="M160.398 79.9141C160.398 81.5859 160.109 83.0547 159.531 84.3203C158.953 85.5781 158.125 86.5469 157.047 87.2266C155.977 87.8984 154.742 88.2344 153.344 88.2344C151.961 88.2344 150.727 87.8984 149.641 87.2266C148.562 86.5469 147.727 85.582 147.133 84.332C146.547 83.082 146.25 81.6406 146.242 80.0078V79.0469C146.242 77.3828 146.535 75.9141 147.121 74.6406C147.715 73.3672 148.547 72.3945 149.617 71.7227C150.695 71.043 151.93 70.7031 153.32 70.7031C154.711 70.7031 155.941 71.0391 157.012 71.7109C158.09 72.375 158.922 73.3359 159.508 74.5938C160.094 75.8438 160.391 77.3008 160.398 78.9648V79.9141ZM157.434 79.0234C157.434 77.1328 157.074 75.6836 156.355 74.6758C155.645 73.668 154.633 73.1641 153.32 73.1641C152.039 73.1641 151.035 73.668 150.309 74.6758C149.59 75.6758 149.223 77.0938 149.207 78.9297V79.9141C149.207 81.7891 149.57 83.2383 150.297 84.2617C151.031 85.2852 152.047 85.7969 153.344 85.7969C154.656 85.7969 155.664 85.2969 156.367 84.2969C157.078 83.2969 157.434 81.8359 157.434 79.9141V79.0234ZM170.758 86.7578C169.922 87.7422 168.734 88.2344 167.195 88.2344C165.82 88.2344 164.777 87.832 164.066 87.0273C163.363 86.2227 163.012 85.0586 163.012 83.5352V75.3203H165.859V83.5C165.859 85.1094 166.527 85.9141 167.863 85.9141C169.246 85.9141 170.18 85.418 170.664 84.4258V75.3203H173.512V88H170.828L170.758 86.7578Z" fill="white"/>
</svg>
